<svg xmlns="http://www.w3.org/2000/svg" xmlns:xlink="http://www.w3.org/1999/xlink" width="348px" height="396px" viewBox="0 0 348 396">
  <g id="6da03dae-b493-43d0-944e-7bc35e15f85e">
<rect style="stroke: rgb(193,193,193); stroke-width: 0; stroke-dasharray: none; stroke-linecap: butt; stroke-dashoffset: 0; stroke-linejoin: miter; stroke-miterlimit: 4; fill: rgb(255,255,255); fill-rule: nonzero; opacity: 0;" x="-174" y="-198" rx="0" ry="0" width="348" height="396" transform="matrix(1 0 0 1 174 198)"/>
</g>
<g id="NW5SsE7QiOutdbUyHNb_S">
<g style="">
		<g id="fNFbTWIt8WXq77IXwud3t">
<path style="stroke: rgb(193,193,193); stroke-width: 0; stroke-dasharray: none; stroke-linecap: butt; stroke-dashoffset: 0; stroke-linejoin: miter; stroke-miterlimit: 4; fill: rgb(240,240,240); fill-rule: nonzero; opacity: 1;" transform="matrix(0.442002 0 0 0.442002 174.000084 198.195397) matrix(1 0 0 1 0 0)  translate(-506.679991, -511.320913)" d="M 264.46 958.41 C 255.01 955.05 248.18 946.09 247.25 935.85 L 246.70 929.71 L 249.60 930.60 C 252.59 931.53 756.99 931.92 762.50 931.00 L 765.50 930.50 L 765.15 935.50 C 764.95 938.25 764.21 941.91 763.50 943.64 C 761.65 948.09 755.35 954.77 750.57 957.32 L 746.50 959.50 L 507.50 959.68 C 301.88 959.83 267.94 959.65 264.46 958.41 M 224.19 913.01 C 176.40 892.82 154.72 873.54 146.81 844.15 C 144.39 835.17 143.87 814.33 145.82 804.50 C 146.92 798.95 165.04 740.05 195.67 642.50 C 202.58 620.50 211.97 590.56 216.54 575.96 C 228.37 538.20 238.82 506.46 241.67 499.64 C 245.07 491.49 248.64 486.41 252.58 484.08 C 256.41 481.82 292.34 465.79 311.00 458.01 C 317.88 455.14 332.27 448.85 343.00 444.03 C 362.03 435.48 367.00 433.45 367.00 434.26 C 367.00 435.15 340.78 489.73 337.91 494.81 L 334.82 500.29 L 349.45 514.95 L 364.09 529.61 L 354.04 539.36 C 348.52 544.72 344.00 549.25 344.00 549.43 C 344.00 549.61 346.05 553.46 348.55 557.99 C 351.06 562.51 357.82 574.98 363.59 585.68 C 369.35 596.39 375.44 607.59 377.13 610.57 L 380.19 616.00 L 334.24 616.00 L 288.29 616.00 L 287.59 602.25 C 286.02 571.61 284.03 559.35 277.51 540.08 C 273.23 527.43 267.87 514.00 267.10 514.00 C 266.77 514.00 266.80 517.94 267.17 522.75 C 267.54 527.56 268.15 543.20 268.51 557.50 C 268.88 571.80 269.53 592.05 269.97 602.50 C 270.67 619.33 270.58 621.61 269.18 622.50 C 263.85 625.85 256.61 634.02 253.72 639.93 C 250.53 646.43 250.50 646.65 250.63 660.50 C 250.69 668.20 251.48 680.80 252.37 688.50 C 255.51 715.53 257.09 728.56 258.02 735.00 C 259.39 744.47 259.32 745.35 257.25 744.47 C 246.43 739.89 224.12 738.38 213.35 741.49 C 200.47 745.21 183.98 756.84 178.66 765.96 L 176.82 769.12 L 184.09 765.46 C 192.22 761.36 206.62 757.38 216.78 756.41 L 223.50 755.77 L 218.50 758.49 C 211.40 762.34 204.95 767.25 200.23 772.36 C 195.27 777.74 187.65 789.11 185.47 794.38 L 183.87 798.25 L 189.68 793.27 C 202.04 782.68 217.55 774.17 234.50 768.69 C 243.66 765.72 257.73 762.71 258.94 763.46 C 259.39 763.74 260.08 767.47 260.46 771.74 C 260.84 776.01 261.37 780.42 261.63 781.54 C 262.06 783.35 261.39 783.70 255.54 784.70 C 236.34 787.99 220.78 802.65 214.34 823.55 C 212.79 828.56 212.50 832.98 212.50 851.50 C 212.50 871.49 212.71 874.23 214.80 881.44 C 217.83 891.92 223.86 903.32 230.02 910.23 C 237.35 918.46 237.23 918.52 224.19 913.01 M 783.43 909.91 C 790.21 901.25 795.29 891.12 798.18 880.50 C 800.09 873.50 800.36 869.86 800.41 851.50 C 800.46 828.55 799.64 823.30 794.26 812.23 C 790.57 804.63 780.48 794.06 773.27 790.25 C 766.69 786.76 758.03 784.00 753.68 784.00 L 750.73 784.00 L 751.44 774.28 C 751.83 768.94 752.37 764.21 752.64 763.78 C 753.46 762.45 757.41 762.90 767.20 765.45 C 780.44 768.89 785.18 770.56 795.82 775.56 C 806.26 780.47 816.21 786.80 823.32 793.05 C 825.94 795.36 828.27 797.06 828.50 796.83 C 828.73 796.60 826.57 792.42 823.71 787.54 C 817.59 777.11 807.18 765.97 798.09 760.12 C 792.05 756.23 791.86 756.00 794.78 756.00 C 802.61 756.00 818.16 760.53 828.86 765.93 C 832.35 767.69 835.40 768.94 835.64 768.70 C 836.52 767.81 827.75 757.83 822.22 753.43 C 814.94 747.63 807.07 743.59 798.92 741.47 C 789.85 739.11 768.96 739.81 760.51 742.76 C 757.21 743.91 754.41 744.75 754.28 744.62 C 753.94 744.27 755.48 730.24 758.92 702.50 C 760.01 693.70 761.39 681.33 761.99 675.00 C 762.58 668.67 763.24 661.71 763.45 659.53 C 763.98 653.93 762.44 645.54 759.93 640.35 C 757.42 635.18 749.40 626.09 745.49 623.99 L 742.77 622.54 L 743.41 593.02 C 743.77 576.78 744.26 559.67 744.51 555.00 C 744.75 550.33 745.20 539.30 745.49 530.50 L 746.02 514.50 L 742.42 523.00 C 730.94 550.15 726.72 569.49 725.33 601.25 L 724.69 616.00 L 678.82 616.00 L 632.95 616.00 L 634.63 612.75 C 636.77 608.59 664.59 557.65 667.27 552.96 L 669.30 549.43 L 659.15 539.46 L 649.00 529.50 L 663.29 515.00 L 677.57 500.50 L 661.29 467.26 C 652.33 448.97 645.00 433.80 645.00 433.55 C 645.00 433.29 648.04 434.61 651.75 436.47 C 655.46 438.34 671.55 445.33 687.50 452.01 C 753.81 479.76 758.62 481.99 764.49 487.69 C 766.44 489.58 769.10 493.23 770.40 495.81 C 773.95 502.80 794.59 566.98 824.66 664.50 C 827.71 674.40 831.49 686.55 833.07 691.50 C 834.64 696.45 840.03 714.23 845.04 731.00 C 850.06 747.77 856.18 768.02 858.65 776.00 C 866.38 800.93 868.00 809.00 867.99 822.50 C 867.97 859.19 850.71 882.59 807.82 904.09 C 797.08 909.48 779.99 917.00 778.50 917.00 C 778.16 917.00 780.38 913.81 783.43 909.91 M 288.81 914.48 C 288.56 914.22 288.48 910.30 288.64 905.76 L 288.93 897.50 L 318.22 897.00 C 343.67 896.57 347.92 896.27 350.72 894.74 C 355.24 892.27 357.87 889.28 360.61 883.50 C 363.34 877.75 363.56 874.19 361.61 867.71 L 360.23 863.10 L 364.86 860.80 C 373.28 856.62 377.80 845.41 375.11 835.41 C 372.96 827.44 364.77 819.81 356.92 818.49 C 352.70 817.77 352.88 818.37 354.54 810.40 C 355.35 806.53 352.49 798.01 348.94 793.72 C 347.22 791.64 343.94 788.94 341.65 787.72 C 337.72 785.62 336.02 785.47 309.00 785.00 L 280.50 784.50 L 280.22 781.00 C 279.83 776.18 274.71 729.82 270.50 693.00 C 266.53 658.25 266.40 655.12 268.59 648.68 C 270.61 642.77 277.29 636.67 283.45 635.12 C 289.37 633.63 723.77 633.53 729.12 635.02 C 734.26 636.44 738.97 639.88 742.32 644.65 C 746.18 650.14 746.73 657.59 744.63 676.13 C 740.53 712.43 738.88 726.72 738.46 729.50 C 737.33 737.12 733.00 778.35 733.00 781.48 L 733.00 785.00 L 706.68 785.00 C 677.29 785.00 672.68 785.71 666.43 791.20 C 659.66 797.14 656.96 806.48 659.33 815.75 L 660.16 819.00 L 656.05 819.00 C 644.65 819.00 635.96 829.14 636.02 842.38 C 636.06 849.80 640.01 856.59 646.58 860.52 L 651.66 863.55 L 650.41 867.03 C 646.54 877.74 652.50 890.97 663.22 895.45 C 666.28 896.73 671.94 897.00 695.47 897.00 L 724.00 897.00 L 724.00 905.50 L 724.00 914.00 L 509.75 914.11 C 391.91 914.17 294.10 914.39 292.39 914.59 C 290.68 914.79 289.07 914.74 288.81 914.48 M 520.26 823.06 C 533.60 819.65 542.72 813.46 550.53 802.50 C 578.91 762.75 545.44 709.09 497.43 717.37 C 484.85 719.54 475.97 724.17 467.88 732.76 C 450.75 750.96 447.36 774.63 458.77 796.40 C 470.24 818.28 495.73 829.33 520.26 823.06 M 309.55 687.55 C 311.72 685.37 312.00 684.22 312.00 677.55 L 312.00 670.00 L 367.55 670.00 L 423.09 670.00 L 425.55 667.55 C 429.04 664.05 428.80 659.85 424.92 656.59 L 421.85 654.00 L 363.57 654.00 L 305.30 654.00 L 301.90 656.28 C 297.48 659.25 296.13 663.44 296.06 674.30 C 296.00 683.13 297.41 688.19 300.23 689.33 C 303.39 690.60 307.22 689.87 309.55 687.55 M 463.69 667.83 C 467.92 663.84 465.99 656.09 460.22 653.89 C 455.15 651.97 449.00 656.96 449.00 663.00 C 449.00 669.04 458.92 672.30 463.69 667.83 M 262.32 912.15 C 248.18 907.26 234.70 890.53 230.48 872.63 C 228.58 864.60 228.56 840.73 230.44 831.87 C 233.33 818.23 241.06 807.99 251.38 804.13 C 256.82 802.10 258.76 802.00 294.35 802.00 C 330.48 802.00 331.69 802.06 333.81 804.04 C 336.86 806.88 337.06 811.12 334.29 814.21 C 332.90 815.76 329.30 815.96 297.29 816.21 L 261.82 816.50 L 259.41 819.31 C 257.07 822.03 256.35 826.13 257.62 829.46 C 259.29 833.81 261.49 834.00 309.38 834.00 L 354.85 834.00 L 356.85 836.54 C 359.10 839.40 358.86 843.39 356.28 846.24 C 354.81 847.87 351.40 848.00 310.49 848.00 C 280.73 848.00 265.26 848.36 263.12 849.11 C 259.85 850.25 257.00 854.34 257.00 857.89 C 257.00 858.99 258.01 861.04 259.25 862.45 C 261.47 864.98 261.73 865.02 278.50 865.42 C 287.85 865.64 305.74 865.86 318.25 865.91 C 339.60 865.99 341.12 866.12 343.00 868.00 C 344.11 869.11 345.00 871.33 345.00 873.00 C 345.00 874.67 344.11 876.89 343.00 878.00 C 341.07 879.93 339.67 880.00 301.67 880.00 L 262.35 880.00 L 260.17 882.31 C 254.87 887.96 259.05 897.00 266.95 897.00 L 271.00 897.00 L 271.00 905.50 C 271.00 915.22 271.07 915.17 262.32 912.15 M 741.00 905.50 L 741.00 897.00 L 745.55 897.00 C 753.87 897.00 757.96 889.03 752.93 882.63 L 750.85 880.00 L 711.10 880.00 L 671.35 880.00 L 669.17 877.69 C 666.46 874.79 666.38 870.62 669.00 868.00 C 670.93 866.07 672.33 866.00 709.55 866.00 C 755.14 866.00 755.00 866.03 755.00 856.51 C 755.00 854.02 754.22 852.53 751.92 850.59 L 748.85 848.00 L 703.10 848.00 L 657.35 848.00 L 655.17 845.69 C 652.46 842.79 652.38 838.62 655.00 836.00 C 656.94 834.06 658.33 834.00 702.43 834.00 C 730.11 834.00 748.89 833.61 750.48 833.01 C 753.87 831.72 756.44 825.85 755.24 822.16 C 754.75 820.63 752.91 818.75 750.94 817.75 C 747.86 816.19 743.88 816.00 713.40 816.00 C 681.65 816.00 679.20 815.87 677.65 814.17 C 675.33 811.60 675.56 806.71 678.10 804.40 C 680.08 802.61 682.46 802.48 717.74 802.21 C 758.79 801.90 760.79 802.12 768.38 807.79 C 773.59 811.69 778.75 819.44 781.03 826.82 C 782.69 832.20 783.00 836.08 782.99 851.36 C 782.97 872.25 781.83 878.72 776.36 889.13 C 774.38 892.89 770.25 898.47 767.17 901.52 C 760.84 907.80 749.51 914.00 744.37 914.00 L 741.00 914.00 L 741.00 905.50 M 117.87 762.49 C 116.42 761.70 114.87 760.26 114.43 759.28 C 113.17 756.51 112.87 552.16 114.12 548.23 C 115.15 545.01 119.19 542.00 122.50 542.00 C 125.47 542.00 129.71 544.89 130.88 547.70 C 131.74 549.78 131.97 577.35 131.77 654.33 L 131.50 758.16 L 128.23 761.08 C 124.65 764.29 121.87 764.67 117.87 762.49 M 885.08 761.41 L 882.00 758.82 L 882.00 653.00 L 882.00 547.18 L 885.08 544.59 C 889.25 541.08 893.35 541.20 897.09 544.94 L 900.04 547.88 L 899.77 652.88 L 899.50 757.87 L 896.56 760.93 C 892.90 764.75 889.23 764.90 885.08 761.41 M 849.45 672.55 L 847.00 670.09 L 847.00 627.29 L 847.00 584.49 L 842.73 584.83 C 839.42 585.09 838.04 584.71 836.61 583.12 C 834.07 580.31 834.90 577.91 841.50 569.00 C 851.21 555.89 852.97 554.00 855.45 554.00 C 858.30 554.00 859.90 555.67 869.56 568.75 C 874.82 575.87 876.96 579.56 876.55 580.84 C 875.72 583.45 871.70 585.33 868.08 584.80 L 865.00 584.35 L 865.00 627.22 L 865.00 670.09 L 862.55 672.55 C 860.74 674.35 859.01 675.00 856.00 675.00 C 852.99 675.00 851.26 674.35 849.45 672.55 M 152.90 653.89 C 148.48 652.27 147.80 649.57 148.17 635.07 C 148.48 622.55 148.63 621.71 150.86 619.91 C 154.37 617.07 160.46 617.37 163.62 620.53 C 166.12 623.03 166.15 623.25 165.83 636.62 C 165.50 650.06 165.48 650.20 162.69 652.59 C 159.74 655.13 157.20 655.46 152.90 653.89 M 400.21 614.75 C 398.63 612.85 386.66 591.51 369.92 560.75 L 365.16 552.00 L 377.06 540.75 L 388.96 529.50 L 372.80 513.31 L 356.65 497.12 L 366.98 475.31 C 372.67 463.32 379.91 447.60 383.08 440.38 C 392.64 418.58 393.42 417.36 405.52 405.25 C 411.71 399.06 417.17 394.00 417.66 394.00 C 418.15 394.00 416.56 399.96 414.13 407.25 C 406.91 428.92 406.91 428.97 418.38 480.50 C 425.94 514.47 439.09 577.16 445.90 611.75 L 446.74 616.00 L 423.99 616.00 C 407.01 616.00 400.98 615.68 400.21 614.75 M 474.32 611.25 C 475.38 602.91 482.96 553.84 484.67 544.25 L 486.32 535.00 L 506.52 535.00 L 526.71 535.00 L 528.33 545.25 C 529.22 550.89 531.53 565.85 533.47 578.50 C 535.41 591.15 537.45 604.20 538.00 607.50 C 538.54 610.80 538.99 614.06 538.99 614.75 C 539.00 615.72 531.81 616.00 506.36 616.00 L 473.72 616.00 L 474.32 611.25 M 567.00 614.21 C 567.00 611.99 570.57 593.63 575.98 568.00 C 578.25 557.27 583.66 531.17 588.01 510.00 C 592.37 488.82 597.38 465.43 599.15 458.00 C 601.83 446.76 602.37 442.49 602.40 432.50 C 602.43 421.02 602.25 419.96 598.21 407.91 C 595.90 400.99 594.00 394.98 594.00 394.56 C 594.00 393.55 604.73 402.89 612.80 410.91 C 619.92 417.99 619.98 418.10 637.12 456.50 C 642.77 469.15 649.36 483.51 651.76 488.42 L 656.13 497.34 L 640.00 513.50 L 623.87 529.66 L 635.98 541.08 L 648.09 552.50 L 633.46 578.50 C 625.42 592.80 617.27 607.09 615.35 610.25 L 611.86 616.00 L 589.43 616.00 C 568.53 616.00 567.00 615.88 567.00 614.21 M 153.33 590.54 C 151.58 589.78 149.67 588.26 149.08 587.15 C 148.38 585.84 148.00 575.07 148.00 556.52 L 148.00 527.91 L 150.45 525.45 C 154.16 521.75 160.00 522.03 163.41 526.08 L 166.00 529.15 L 166.00 556.53 C 166.00 574.87 165.62 584.73 164.86 586.40 C 164.24 587.78 162.25 589.60 160.46 590.45 C 156.62 592.27 157.29 592.26 153.33 590.54 M 182.31 534.59 L 179.50 532.17 L 179.22 493.58 L 178.93 454.98 L 181.42 452.49 C 185.50 448.41 193.59 449.62 195.89 454.66 C 196.64 456.30 197.00 469.12 197.00 494.12 L 197.00 531.15 L 194.08 534.08 C 190.41 537.74 186.19 537.92 182.31 534.59 M 829.95 534.69 C 817.57 531.21 808.39 520.37 807.26 507.88 C 805.85 492.36 815.58 478.47 830.67 474.47 C 855.64 467.86 877.53 494.61 866.01 517.66 C 858.79 532.12 844.62 538.81 829.95 534.69 M 844.80 515.35 C 848.00 513.32 850.99 508.07 850.99 504.50 C 850.99 496.98 842.03 490.05 834.87 492.03 C 823.32 495.21 821.70 511.21 832.42 516.12 C 836.80 518.12 840.82 517.87 844.80 515.35 M 483.67 509.42 L 478.85 501.97 L 486.41 491.74 C 498.61 475.22 497.39 476.22 505.92 475.83 L 513.35 475.50 L 523.75 488.34 C 529.47 495.40 533.93 501.74 533.67 502.43 C 533.40 503.11 531.01 506.67 528.36 510.34 L 523.52 517.00 L 506.01 516.93 L 488.50 516.87 L 483.67 509.42 M 445.99 510.77 C 445.38 508.42 442.47 497.73 439.52 487.00 C 426.19 438.57 425.10 433.83 426.14 429.00 C 426.56 427.07 427.01 423.81 427.15 421.75 C 427.28 419.69 427.71 418.00 428.10 418.00 C 428.48 418.00 431.07 420.61 433.83 423.81 C 442.44 433.75 460.87 449.44 480.50 463.55 L 483.36 465.61 L 471.55 482.05 C 458.83 499.76 452.85 507.89 449.32 512.27 L 447.09 515.05 L 445.99 510.77 M 558.40 505.75 C 555.23 501.21 547.32 490.43 540.83 481.79 L 529.02 466.08 L 533.76 462.86 C 543.37 456.32 557.02 444.76 570.72 431.56 L 584.79 418.00 L 586.00 426.25 C 587.39 435.75 587.93 433.13 575.31 479.00 C 571.15 494.12 567.30 508.19 566.75 510.25 C 566.20 512.31 565.40 514.00 564.96 514.00 C 564.52 514.00 561.57 510.29 558.40 505.75 M 147.29 497.82 C 141.02 496.15 141.00 496.03 141.00 459.41 C 141.00 427.40 141.07 426.18 143.07 423.63 C 145.93 420.00 152.53 419.91 156.35 423.45 L 159.00 425.90 L 159.00 459.23 C 159.00 495.56 158.96 495.80 153.27 497.73 C 151.66 498.28 149.16 498.32 147.29 497.82 M 882.37 474.46 C 879.89 471.99 879.84 471.64 880.17 459.99 C 880.47 449.14 880.71 447.84 882.78 445.78 C 886.04 442.51 893.42 442.56 896.09 445.86 C 897.73 447.89 898.00 449.90 898.00 460.16 C 898.00 471.49 897.88 472.21 895.55 474.55 C 892.09 478.00 885.87 477.96 882.37 474.46 M 213.84 455.29 C 213.00 454.30 208.59 447.43 204.04 440.00 C 199.49 432.57 194.25 424.37 192.39 421.76 L 189.02 417.02 L 200.62 398.26 C 207.01 387.94 212.87 378.49 213.64 377.25 C 215.03 375.03 215.31 375.00 237.31 375.00 L 259.56 375.00 L 267.46 388.25 C 271.80 395.54 277.55 404.77 280.22 408.77 L 285.09 416.05 L 272.44 436.02 L 259.78 456.00 L 238.97 456.00 C 227.53 456.00 217.54 456.24 216.77 456.54 C 216.00 456.83 214.68 456.27 213.84 455.29 M 251.38 430.75 C 253.22 427.86 255.99 423.23 257.54 420.46 L 260.34 415.43 L 254.42 405.72 L 248.50 396.02 L 237.00 396.04 L 225.50 396.06 L 219.56 405.67 L 213.61 415.28 L 215.92 419.39 C 217.18 421.65 219.86 426.30 221.86 429.73 L 225.50 435.97 L 236.76 435.98 L 248.02 436.00 L 251.38 430.75 M 495.72 451.61 C 479.61 441.50 462.21 427.13 446.75 411.17 L 437.00 401.11 L 437.00 388.05 C 437.00 380.87 437.15 375.00 437.34 375.00 C 437.53 375.00 439.90 377.76 442.59 381.13 C 448.74 388.81 460.45 398.95 469.19 404.17 C 499.35 422.16 535.57 416.46 562.57 389.46 C 567.03 385.00 571.53 379.92 572.56 378.17 C 573.59 376.43 574.68 375.00 574.97 375.00 C 575.27 375.00 575.46 380.96 575.39 388.25 L 575.26 401.50 L 562.38 414.57 C 555.30 421.76 544.55 431.59 538.50 436.41 C 527.20 445.42 508.89 457.00 505.96 457.00 C 505.05 457.00 500.44 454.57 495.72 451.61 M 782.17 436.69 C 780.03 434.40 780.00 433.91 780.00 400.14 L 780.00 365.91 L 782.45 363.45 L 784.91 361.00 L 819.00 361.00 L 853.09 361.00 L 855.55 363.45 L 858.00 365.91 L 858.00 400.38 L 858.00 434.85 L 855.37 436.93 C 852.82 438.93 851.62 439.00 818.54 439.00 L 784.35 439.00 L 782.17 436.69 M 838.00 399.50 L 838.00 380.00 L 818.50 380.00 L 799.00 380.00 L 799.00 399.50 L 799.00 419.00 L 818.50 419.00 L 838.00 419.00 L 838.00 399.50 M 314.49 416.40 C 312.95 414.37 309.02 410.04 305.77 406.77 L 299.85 400.81 L 306.21 394.16 C 309.71 390.50 313.79 385.93 315.29 384.00 L 318.00 380.50 L 320.69 384.00 C 322.16 385.93 326.21 390.39 329.69 393.92 C 335.81 400.14 337.04 402.00 335.04 402.00 C 334.51 402.00 330.64 405.94 326.44 410.75 C 322.24 415.56 318.47 419.63 318.05 419.78 C 317.63 419.94 316.03 418.42 314.49 416.40 M 887.00 411.31 C 886.17 411.00 884.49 409.82 883.25 408.70 C 881.04 406.69 881.00 406.26 881.00 382.96 C 881.00 360.74 881.12 359.11 883.01 356.71 C 884.12 355.30 886.34 353.87 887.94 353.51 C 891.32 352.77 896.40 355.01 897.97 357.94 C 898.59 359.10 899.00 368.86 899.00 382.42 L 899.00 404.97 L 896.25 407.95 C 893.45 410.98 889.71 412.34 887.00 411.31 M 673.50 407.81 C 667.42 404.37 667.21 395.50 673.12 392.44 C 675.59 391.16 681.90 390.98 715.10 391.22 L 754.17 391.50 L 756.59 394.31 C 758.93 397.03 759.65 401.13 758.38 404.46 C 756.74 408.73 754.04 409.00 713.80 408.97 C 687.21 408.95 674.89 408.59 673.50 407.81 M 123.94 396.05 C 114.71 393.25 114.00 391.31 114.00 368.97 L 114.00 350.85 L 116.92 347.92 C 118.92 345.93 120.85 345.00 123.00 345.00 C 125.15 345.00 127.08 345.93 129.08 347.92 L 132.00 350.85 L 132.00 364.42 L 132.00 378.00 L 148.58 378.00 L 165.15 378.00 L 168.08 380.92 C 173.06 385.90 171.36 392.70 164.40 395.61 C 160.73 397.14 128.69 397.49 123.94 396.05 M 491.00 395.11 C 461.33 385.51 435.67 349.65 423.62 300.95 C 419.50 284.28 417.92 268.87 418.07 246.50 C 418.24 218.93 421.33 199.12 427.33 187.00 C 429.13 183.38 430.68 181.94 435.28 179.63 C 438.42 178.05 443.06 176.52 445.59 176.24 C 449.96 175.74 450.17 175.58 449.78 172.92 L 449.36 170.12 L 451.93 171.89 C 462.40 179.09 480.53 186.90 495.73 190.76 C 505.87 193.34 507.79 193.50 528.50 193.48 C 551.77 193.47 564.47 191.83 578.41 187.03 L 584.13 185.06 L 585.69 188.78 C 586.55 190.83 588.50 197.45 590.02 203.50 C 597.83 234.51 596.54 273.52 586.48 310.62 C 579.30 337.10 566.15 360.82 549.41 377.46 C 535.18 391.59 523.34 396.97 506.50 396.92 C 499.70 396.90 494.74 396.32 491.00 395.11 M 683.71 369.47 C 675.09 366.30 669.07 359.15 666.91 349.49 C 665.87 344.85 665.99 343.40 667.92 337.04 C 670.79 327.59 676.21 321.87 684.60 319.43 C 691.66 317.37 699.99 317.94 705.70 320.85 C 711.64 323.88 717.74 331.30 719.63 337.80 C 723.31 350.45 715.75 365.11 703.25 369.57 C 698.41 371.30 688.55 371.25 683.71 369.47 M 699.99 350.51 C 704.58 345.62 701.99 337.65 695.42 336.42 C 686.55 334.75 681.02 347.23 688.76 351.43 C 693.00 353.73 697.30 353.38 699.99 350.51 M 747.05 355.39 L 743.94 352.77 L 744.22 340.24 C 744.50 327.87 744.54 327.69 747.25 325.66 C 750.92 322.92 756.42 323.11 759.58 326.08 C 761.88 328.23 762.00 328.96 762.00 340.27 L 762.00 352.20 L 758.89 355.10 C 754.98 358.75 751.16 358.84 747.05 355.39 M 171.78 352.44 C 166.24 349.44 165.47 343.74 169.92 338.77 L 172.84 335.50 L 249.36 335.23 L 325.89 334.96 L 326.19 313.89 L 326.50 292.82 L 329.42 290.31 C 332.94 287.29 337.91 287.63 341.64 291.13 C 344.00 293.35 344.00 293.35 344.00 318.92 C 343.99 342.81 343.86 344.72 341.97 347.81 C 338.07 354.22 341.14 354.00 253.78 353.96 C 185.76 353.93 174.11 353.71 171.78 352.44 M 846.45 331.55 C 844.12 329.21 844.00 328.50 844.00 317.00 C 844.00 305.50 844.12 304.79 846.45 302.45 C 848.26 300.65 849.99 300.00 853.00 300.00 C 856.01 300.00 857.74 300.65 859.55 302.45 C 861.88 304.78 862.00 305.51 862.00 316.77 C 862.00 328.45 861.96 328.66 859.20 331.31 C 855.45 334.90 849.91 335.01 846.45 331.55 M 882.45 325.35 C 880.14 322.86 880.00 322.05 880.00 310.91 C 880.00 300.11 880.19 298.89 882.25 296.52 C 883.56 295.02 885.99 293.70 888.06 293.37 C 890.95 292.91 892.21 293.30 894.81 295.49 L 898.00 298.18 L 898.00 310.63 C 898.00 322.53 897.89 323.20 895.55 325.55 C 892.03 329.06 885.80 328.97 882.45 325.35 M 120.37 323.08 C 114.00 319.20 114.00 319.20 114.00 290.23 L 114.00 263.91 L 116.45 261.45 C 119.14 258.77 122.48 258.35 126.53 260.19 C 131.45 262.44 132.00 265.13 132.00 286.95 L 132.00 307.00 L 140.75 307.01 C 154.50 307.02 159.64 307.91 162.50 310.78 C 165.94 314.21 165.78 318.37 162.08 322.08 L 159.15 325.00 L 141.33 325.00 C 125.54 324.99 123.14 324.77 120.37 323.08 M 791.44 315.63 C 786.05 313.12 779.66 306.59 777.37 301.25 L 775.97 298.00 L 724.94 298.00 L 673.91 298.00 L 671.50 295.59 C 668.33 292.42 667.50 288.81 669.16 285.35 C 671.72 280.01 671.48 280.03 726.35 280.01 L 777.19 280.00 L 781.83 274.85 C 793.39 261.99 811.21 261.60 822.35 273.95 C 827.54 279.71 829.31 284.26 829.38 292.00 C 829.44 298.95 827.58 303.78 822.52 309.79 C 815.81 317.77 801.72 320.41 791.44 315.63 M 808.55 297.55 C 813.51 292.58 810.46 283.76 803.29 282.38 C 798.80 281.52 794.00 286.21 794.00 291.47 C 794.00 299.13 803.14 302.95 808.55 297.55 M 214.65 310.17 C 213.54 308.94 212.96 306.40 212.89 302.42 C 212.83 299.16 212.49 293.85 212.14 290.61 L 211.50 284.71 L 206.27 282.73 L 201.05 280.75 L 194.27 286.68 C 185.68 294.20 182.00 297.00 180.71 297.00 C 179.47 297.00 156.25 274.26 154.83 271.65 C 153.75 269.67 156.19 265.98 164.24 257.42 C 170.79 250.45 171.29 249.41 170.01 245.54 C 169.39 243.66 168.02 241.03 166.96 239.68 C 165.16 237.39 164.40 237.23 154.30 237.07 C 148.32 236.97 142.43 236.36 141.03 235.69 L 138.50 234.48 L 138.21 218.49 C 138.06 209.69 138.17 201.50 138.47 200.29 C 139.18 197.44 143.52 196.25 156.26 195.44 L 166.03 194.81 L 168.51 190.57 C 169.88 188.23 171.00 185.74 171.00 185.03 C 171.00 184.31 167.96 180.39 164.25 176.31 C 160.54 172.22 156.67 167.56 155.66 165.94 L 153.81 163.00 L 166.58 150.00 C 173.60 142.85 180.10 137.00 181.03 137.00 C 181.95 137.00 185.59 139.61 189.11 142.79 C 200.81 153.39 200.27 153.13 206.29 151.08 L 211.50 149.32 L 212.13 137.12 C 213.01 120.15 211.88 121.00 233.58 121.00 C 254.69 121.00 253.98 120.59 254.06 132.82 C 254.09 137.59 254.43 143.26 254.81 145.41 C 255.46 149.04 255.87 149.43 260.77 151.10 L 266.03 152.89 L 275.19 144.94 C 280.22 140.58 285.06 137.00 285.94 137.00 C 288.47 137.00 312.00 161.14 312.00 163.74 C 312.00 165.13 309.00 169.14 303.91 174.54 C 295.05 183.94 294.93 184.37 299.11 191.46 C 300.79 194.31 301.81 195.00 304.35 195.01 C 313.34 195.05 324.76 196.39 326.75 197.63 C 328.94 199.01 329.00 199.49 329.00 216.47 C 329.00 237.98 329.75 237.00 313.43 237.00 C 304.10 237.00 302.06 237.28 300.75 238.75 C 299.02 240.70 296.00 247.55 296.00 249.52 C 296.00 250.23 299.60 254.74 304.00 259.56 C 308.40 264.38 312.00 269.04 312.00 269.92 C 312.00 270.81 306.17 277.34 299.05 284.45 C 283.99 299.48 285.94 299.20 273.67 288.04 C 265.26 280.39 265.29 280.40 258.00 283.84 L 254.50 285.50 L 254.00 297.79 C 253.62 307.23 253.15 310.30 252.00 311.02 C 251.18 311.54 242.81 311.98 233.40 311.98 C 218.10 312.00 216.14 311.81 214.65 310.17 M 242.50 262.01 C 259.85 259.17 273.61 245.60 278.48 226.54 C 280.38 219.11 280.38 214.23 278.49 206.23 C 272.45 180.61 247.38 165.06 222.53 171.53 C 202.41 176.77 188.00 195.51 188.00 216.42 C 188.00 229.28 191.99 239.04 201.14 248.57 C 212.19 260.08 226.29 264.66 242.50 262.01 M 402.42 308.53 C 391.78 302.49 384.40 292.70 379.41 278.00 C 378.02 273.88 377.54 269.53 377.52 260.67 L 377.50 248.84 L 380.88 245.82 C 384.71 242.40 388.01 242.45 393.02 246.02 C 398.31 249.78 400.61 256.75 402.90 276.00 C 404.05 285.62 406.03 297.66 407.30 302.75 C 408.57 307.84 409.36 311.99 409.05 311.98 C 408.75 311.98 405.77 310.42 402.42 308.53 M 603.48 310.25 C 605.47 305.23 608.52 287.85 610.47 270.45 C 612.11 255.81 613.57 251.38 617.94 247.71 C 622.64 243.75 627.53 242.46 630.50 244.41 C 634.40 246.97 635.30 249.82 635.36 259.96 C 635.47 275.84 629.53 292.31 620.42 301.42 C 616.84 305.01 605.65 312.00 603.50 312.00 C 603.11 312.00 603.10 311.21 603.48 310.25 M 851.00 270.19 C 834.50 264.70 822.43 249.28 821.29 232.25 C 820.55 221.06 822.96 213.08 830.19 202.87 C 831.92 200.42 819.78 187.00 815.83 187.00 C 813.43 187.00 812.93 187.55 811.95 191.25 C 810.23 197.71 806.11 204.65 801.41 208.98 C 797.05 212.99 788.24 218.00 785.53 218.00 C 784.22 218.00 784.00 220.37 784.00 234.78 C 784.00 253.12 783.49 255.05 778.02 257.35 C 776.03 258.19 761.40 258.36 724.17 258.00 C 674.23 257.51 673.01 257.45 670.99 255.44 C 669.86 254.31 668.68 251.80 668.37 249.87 C 667.91 247.05 668.29 245.77 670.31 243.42 L 672.83 240.50 L 718.91 240.22 L 765.00 239.94 L 765.00 228.97 C 765.00 219.55 764.77 218.00 763.39 218.00 C 760.18 218.00 749.77 211.54 745.91 207.16 C 743.74 204.70 740.56 199.83 738.85 196.34 L 735.73 190.00 L 726.91 190.00 L 718.09 190.00 L 716.42 193.53 C 714.01 198.61 707.43 203.82 701.10 205.66 C 685.67 210.14 670.22 201.02 667.01 185.53 C 665.64 178.97 667.50 170.91 671.86 164.50 C 675.23 159.54 683.46 154.48 689.50 153.66 C 699.75 152.25 710.83 157.38 716.20 166.01 L 719.30 171.00 L 727.51 171.00 L 735.73 171.00 L 738.90 164.56 C 743.51 155.19 752.74 146.98 762.01 144.00 C 776.96 139.19 793.71 143.19 803.05 153.79 C 805.34 156.38 808.07 160.19 809.12 162.25 C 811.04 165.99 811.05 166.00 817.44 166.00 L 823.85 166.00 L 835.00 177.82 L 846.15 189.64 L 851.82 187.71 C 860.24 184.85 874.23 185.64 882.74 189.47 C 890.40 192.90 898.00 200.51 898.00 204.73 C 898.00 208.27 895.74 211.57 891.99 213.51 C 887.66 215.74 885.27 215.35 880.67 211.62 C 874.03 206.25 870.08 204.59 864.00 204.64 C 857.43 204.70 852.08 207.19 846.80 212.67 C 842.10 217.53 840.00 222.58 840.00 229.00 C 840.00 235.31 841.76 239.62 846.47 244.83 C 851.27 250.14 857.29 253.00 863.69 253.00 C 869.61 253.00 873.64 251.45 880.43 246.55 C 886.02 242.52 888.21 242.22 892.58 244.89 C 896.81 247.46 898.64 252.04 897.01 255.97 C 895.12 260.53 887.99 266.48 881.42 268.99 C 873.14 272.15 858.61 272.72 851.00 270.19 M 784.37 199.51 C 788.89 197.35 793.56 191.34 795.07 185.73 C 797.46 176.87 792.70 167.03 783.92 162.65 C 777.84 159.62 774.07 159.36 767.89 161.54 C 753.02 166.79 749.16 185.29 760.66 196.19 C 766.95 202.17 776.12 203.45 784.37 199.51 M 699.36 186.36 C 703.06 182.67 702.95 177.80 699.08 173.92 C 692.10 166.95 681.63 174.40 685.48 183.60 C 687.88 189.36 694.96 190.77 699.36 186.36 M 398.96 229.58 C 398.16 228.80 395.25 227.52 392.50 226.73 L 387.50 225.30 L 386.29 217.40 C 384.35 204.82 383.57 174.01 384.86 161.00 C 387.27 136.70 395.22 116.56 406.76 105.53 C 410.74 101.74 421.15 96.00 424.07 96.00 C 425.03 96.00 430.25 91.56 435.66 86.13 C 449.32 72.44 458.73 68.04 482.00 64.47 C 529.41 57.20 581.85 75.97 609.20 110.00 C 617.56 120.40 624.82 137.37 627.53 152.88 C 629.88 166.31 629.40 196.07 626.42 220.63 C 625.81 225.69 625.75 225.77 621.95 226.28 C 619.83 226.56 616.77 227.74 615.14 228.90 C 613.52 230.05 611.92 231.00 611.60 231.00 C 611.27 231.00 611.00 228.81 611.00 226.13 C 611.00 213.33 605.88 193.04 598.98 178.50 C 591.90 163.57 593.42 164.40 580.71 168.53 C 566.85 173.04 559.40 174.57 544.00 176.06 C 517.95 178.57 494.63 174.88 474.50 165.06 C 456.60 156.33 441.13 142.28 434.63 128.86 C 432.70 124.87 431.33 121.28 431.58 120.87 C 431.83 120.47 435.41 121.71 439.54 123.61 C 462.54 134.24 501.02 137.87 527.50 131.91 C 536.45 129.90 551.00 125.01 551.00 124.02 C 551.00 123.73 538.74 122.00 523.75 120.16 C 482.36 115.09 455.00 110.67 455.00 109.04 C 455.00 107.71 469.80 100.44 479.30 97.11 C 484.14 95.41 492.18 93.27 497.16 92.36 C 504.27 91.06 505.84 90.49 504.43 89.70 C 501.52 88.07 479.84 87.59 471.25 88.97 C 455.03 91.57 435.46 99.60 428.57 106.50 C 420.65 114.42 419.76 132.06 426.32 150.94 C 428.32 156.68 429.85 161.43 429.73 161.50 C 429.60 161.57 427.17 163.30 424.33 165.34 C 413.08 173.42 405.32 191.94 402.48 217.48 C 402.36 218.59 402.20 222.09 402.13 225.25 C 402.00 231.22 401.44 231.98 398.96 229.58 M 553.00 158.02 C 557.67 156.87 563.86 155.06 566.74 153.98 C 573.04 151.64 585.65 145.37 586.35 144.24 C 586.63 143.79 580.93 144.19 573.68 145.13 C 540.43 149.46 504.71 150.91 486.50 148.67 C 479.90 147.86 474.33 147.36 474.13 147.56 C 473.44 148.21 485.27 153.02 494.96 156.04 C 500.22 157.67 507.89 159.43 512.01 159.94 C 523.50 161.37 543.11 160.46 553.00 158.02 M 118.50 160.85 C 114.12 158.45 114.00 157.67 114.00 132.71 C 114.00 97.07 113.03 98.06 147.83 98.02 L 170.15 98.00 L 173.08 100.92 C 177.04 104.88 177.01 109.14 173.00 113.15 L 170.00 116.16 L 151.00 115.83 L 132.00 115.50 L 132.00 135.32 C 132.00 155.34 131.59 158.03 128.09 160.72 C 126.11 162.23 121.16 162.30 118.50 160.85 M 328.59 158.92 L 326.00 155.85 L 326.00 135.99 L 326.00 116.12 L 307.41 115.81 L 288.82 115.50 L 286.41 112.69 C 282.90 108.61 283.16 103.88 287.08 100.59 L 290.15 98.00 L 311.61 98.00 C 335.00 98.00 337.91 98.53 341.83 103.51 C 343.93 106.18 344.00 107.12 344.00 132.06 L 344.00 157.85 L 341.37 159.93 C 337.26 163.15 331.79 162.72 328.59 158.92 M 855.42 154.61 C 845.61 150.05 839.91 141.86 839.19 131.33 C 838.48 120.73 844.62 110.29 854.38 105.52 C 873.61 96.10 895.89 111.41 893.71 132.55 C 891.83 150.73 871.83 162.26 855.42 154.61 M 873.75 135.51 C 874.99 134.07 876.00 131.99 876.00 130.89 C 876.00 127.68 873.36 123.48 870.53 122.19 C 865.24 119.79 861.00 121.16 858.45 126.10 C 856.41 130.04 857.34 134.34 860.83 137.08 C 864.44 139.93 870.58 139.18 873.75 135.51 M 733.50 118.32 C 692.10 118.11 674.87 117.69 673.30 116.87 C 672.08 116.23 670.38 114.22 669.52 112.39 C 668.14 109.49 668.12 108.65 669.35 105.71 C 670.19 103.70 671.91 101.86 673.63 101.15 C 675.79 100.26 693.40 100.03 743.68 100.23 L 810.84 100.50 L 813.42 102.92 C 817.16 106.44 816.98 111.69 812.98 115.52 C 809.37 118.98 815.84 118.75 733.50 118.32 M 496.29 805.60 C 485.64 802.15 477.78 795.03 472.75 784.28 C 467.31 772.66 469.03 759.61 477.52 748.08 C 484.81 738.17 495.61 733.42 509.00 734.22 C 525.77 735.23 539.93 748.03 543.05 765.01 C 545.78 779.85 537.23 796.32 523.19 803.23 C 517.59 805.99 515.29 806.54 508.52 806.73 C 503.82 806.87 498.75 806.40 496.29 805.60 M 221.46 242.69 C 218.69 241.37 214.55 238.16 212.27 235.56 C 199.83 221.43 204.04 198.51 220.56 190.43 C 232.57 184.55 244.62 186.54 254.07 195.95 C 265.74 207.57 266.10 223.70 254.98 236.37 C 249.85 242.21 244.86 244.30 235.00 244.73 C 227.62 245.05 225.84 244.78 221.46 242.69 Z" stroke-linecap="round"/>
</g>
</g>
</g>

  </svg>